<?xml version="1.0" encoding="UTF-8"?>
<svg xmlns="http://www.w3.org/2000/svg" width="97" height="97" viewBox="0 0 97 97" fill="none">
  <path d="M79.281 0H17.6186C7.8879 0 0 7.8879 0 17.6186V79.281C0 89.0117 7.8879 96.8996 17.6186 96.8996H79.281C89.0117 96.8996 96.8996 89.0117 96.8996 79.281V17.6176C96.8996 7.8879 89.0117 0 79.281 0ZM17.0674 44.4338C17.0674 45.2842 16.0388 45.7103 15.4373 45.1088L12.726 42.3976C12.2797 41.9513 12.0288 41.3457 12.0288 40.714V32.8866C12.0288 32.1884 12.5951 31.6221 13.2933 31.6221H17.0674V44.4338ZM17.0674 25.4924C17.0674 26.1906 16.5012 26.7558 15.804 26.7558H13.2923C12.594 26.7558 12.0288 26.1896 12.0288 25.4924V22.9806C12.0288 22.2824 12.5951 21.7172 13.2923 21.7172H15.804C16.5022 21.7172 17.0674 22.2834 17.0674 22.9806V25.4924ZM33.6664 60.7053C30.2902 60.5683 28.3144 59.8711 26.5835 58.6671V57.9286V54.5987C26.5835 54.1131 27.1518 53.8582 27.5195 54.1755C27.5276 54.1826 27.5376 54.1907 27.5799 54.2269C27.7008 54.3297 27.8016 54.4063 27.8681 54.4546C30.5048 56.508 33.6593 56.5986 35.9424 56.1805C39.9191 55.4521 43.4243 52.2693 44.1315 47.9652C45.3255 40.7019 39.3589 35.9787 34.5157 35.8618C26.7236 35.6744 24.0758 41.8817 24.0637 47.5964V75.1784H19.551V47.3405C19.15 38.6244 25.3866 31.4357 34.4775 31.6241C40.8269 31.7551 48.2241 36.9439 48.481 45.53C48.747 54.4435 41.7155 61.0317 33.6664 60.7053ZM84.8708 60.6277H80.5122C80.2603 60.6277 80.1344 60.4333 80.1304 60.2187V41.2772C80.0578 38.3413 78.1788 35.9615 75.1602 35.9263C72.6837 35.8971 70.3564 37.6723 70.3181 41.2772V60.6277H65.4659V41.2782C65.4981 38.038 63.1405 36.0572 60.6156 36.0401C58.0051 36.022 55.7644 37.9836 55.7644 41.2782V60.6277H50.9132V41.2782C50.9102 38.3292 51.419 36.4411 53.4783 34.2115C55.1115 32.4443 57.3875 31.5496 59.9497 31.5496C62.0282 31.5496 63.6886 32.2982 64.9883 33.1818C66.0452 33.9032 66.7595 34.7324 67.4648 35.8295C67.6068 36.0512 67.6864 36.161 67.8073 36.16C67.9423 36.159 67.9947 36.0693 68.1348 35.8467C68.8018 34.7908 69.5806 33.88 70.6435 33.1576C71.9422 32.273 73.6872 31.5224 75.803 31.5224C78.4014 31.5224 80.5354 32.5158 82.226 34.1903C83.9146 35.8658 84.8697 38.2285 84.8697 41.2782V60.6277H84.8708Z" fill="#E52B28"></path>
</svg>
